<svg width="25" height="25" viewBox="0 0 25 25" fill="none" xmlns="http://www.w3.org/2000/svg">
<path d="M16.3345 8.29224C17.9258 8.29224 19.4519 8.92438 20.5771 10.0496C21.7023 11.1748 22.3345 12.7009 22.3345 14.2922V21.2922H18.3345V14.2922C18.3345 13.7618 18.1238 13.2531 17.7487 12.878C17.3736 12.503 16.8649 12.2922 16.3345 12.2922C15.804 12.2922 15.2953 12.503 14.9203 12.878C14.5452 13.2531 14.3345 13.7618 14.3345 14.2922V21.2922H10.3345V14.2922C10.3345 12.7009 10.9666 11.1748 12.0918 10.0496C13.2171 8.92438 14.7432 8.29224 16.3345 8.29224V8.29224Z" stroke="white" stroke-width="2" stroke-linecap="round" stroke-linejoin="round"/>
<path d="M6.33447 9.29224H2.33447V21.2922H6.33447V9.29224Z" stroke="white" stroke-width="2" stroke-linecap="round" stroke-linejoin="round"/>
<path d="M4.33447 6.29224C5.43904 6.29224 6.33447 5.39681 6.33447 4.29224C6.33447 3.18767 5.43904 2.29224 4.33447 2.29224C3.2299 2.29224 2.33447 3.18767 2.33447 4.29224C2.33447 5.39681 3.2299 6.29224 4.33447 6.29224Z" stroke="white" stroke-width="2" stroke-linecap="round" stroke-linejoin="round"/>
</svg>
