<svg width="25" height="25" viewBox="0 0 25 25" fill="none" xmlns="http://www.w3.org/2000/svg">
<g clip-path="url(#clip0_104_821)">
<path d="M23.3345 3.29228C22.3769 3.96776 21.3166 4.48439 20.1945 4.82228C19.5922 4.12979 18.7918 3.63897 17.9015 3.41621C17.0112 3.19344 16.074 3.24948 15.2166 3.57674C14.3591 3.90399 13.6229 4.48668 13.1075 5.246C12.592 6.00531 12.3222 6.90462 12.3345 7.82228V8.82228C10.5771 8.86785 8.83575 8.47809 7.26548 7.68773C5.69522 6.89736 4.34479 5.73092 3.33447 4.29228C3.33447 4.29228 -0.665527 13.2923 8.33447 17.2923C6.275 18.6902 3.82163 19.3912 1.33447 19.2923C10.3345 24.2923 21.3345 19.2923 21.3345 7.79228C21.3336 7.51374 21.3068 7.23588 21.2545 6.96228C22.2751 5.95578 22.9953 4.685 23.3345 3.29228V3.29228Z" stroke="white" stroke-width="2" stroke-linecap="round" stroke-linejoin="round"/>
</g>
<defs>
<clipPath id="clip0_104_821">
<rect width="24" height="24" fill="white" transform="translate(0.334473 0.292236)"/>
</clipPath>
</defs>
</svg>
